<svg clip-rule="evenodd" fill-rule="evenodd" stroke-linejoin="round" stroke-miterlimit="2" viewBox="0 0 510 510" xmlns="http://www.w3.org/2000/svg"><path d="m210.39 404.385h16.055c4.418 0 8 3.582 8 8v82.615c0 4.418-3.582 8-8 8h-153.525c-4.419 0-8-3.582-8-8v-82.615c0-4.418 3.581-8 8-8h16.055v-10.133c0-18.501 14.998-33.499 33.499-33.499h3.371v-257.992c-16.063-8.55-27.008-25.464-27.008-44.915 0-28.063 22.783-50.846 50.845-50.846 28.063 0 50.846 22.783 50.846 50.846 0 19.451-10.946 36.365-27.008 44.915v5.898c59.072-21.165 86.867-13.097 117.026-2.593 29.661 10.33 61.796 23.37 133.582 9.877.024-.005.048-.009.073-.014 5.784-1.032 11.58 1.754 14.388 6.916 2.807 5.162 1.995 11.541-2.012 15.833-19.656 21.073-57.643 61.759-71.492 76.591l76.105 77.928c3.555 3.64 4.794 8.953 3.216 13.79s-5.712 8.397-10.72 9.238c-69.869 11.821-113.777.122-152.324-8.974-34.828-8.219-64.996-14.302-107.842 4.314v49.188h3.371c18.501 0 33.499 14.998 33.499 33.499zm-105.415 0h89.415v-10.133c0-9.665-7.835-17.499-17.499-17.499h-54.417c-9.665 0-17.499 7.834-17.499 17.499zm36.87-43.632h15.675v-252.663c-2.555.396-5.173.601-7.838.601s-5.282-.205-7.837-.601zm31.675-66.512c43.52-17.179 75.186-11.136 111.517-2.563 36.127 8.525 77.158 19.598 141.573 9.49l-78.31-80.186c-2.987-3.058-3.041-7.925-.123-11.049 0 0 46.099-49.369 71.882-77.004-71.308 12.198-104.274-1.13-134.776-11.753-28.364-9.879-54.421-17.058-111.763 4.532zm47.745-78.018c-3.122-3.122-3.122-8.192 0-11.314s8.192-3.122 11.314 0c0 0 16.303 16.303 16.303 16.303l47.043-42.675c3.27-2.967 8.334-2.72 11.3.55 2.967 3.27 2.721 8.333-.55 11.3l-52.687 47.796c-3.16 2.867-8.014 2.749-11.032-.269zm-2.82 204.162h-137.525v66.615h137.525zm-68.763-397.385c-19.232 0-34.845 15.614-34.845 34.846s15.613 34.845 34.845 34.845 34.846-15.613 34.846-34.845-15.614-34.846-34.846-34.846zm0 6.575c15.603 0 28.271 12.668 28.271 28.271s-12.668 28.27-28.271 28.27-28.27-12.667-28.27-28.27 12.667-28.271 28.27-28.271zm0 16c-6.772 0-12.27 5.498-12.27 12.271 0 6.772 5.498 12.27 12.27 12.27 6.773 0 12.271-5.498 12.271-12.27 0-6.773-5.498-12.271-12.271-12.271z"/></svg>