<svg id="Layer_1" enable-background="new 0 0 512 512" viewBox="0 0 512 512" xmlns="http://www.w3.org/2000/svg"><path d="m186.3 33.7v-25.4c.2-10.6 16-10.6 16.1 0v25.4c-.1 10.6-15.9 10.6-16.1 0zm-152.1 152.1h-25.4c-10.6.2-10.6 16 0 16.1h25.4c4.5 0 8.1-3.6 8.1-8.1 0-4.4-3.6-8-8.1-8zm279.1-99.5s17.9-17.9 17.9-17.9c7.4-7.6-3.8-18.8-11.4-11.4l-17.9 17.9c-7.4 7.6 3.8 18.8 11.4 11.4zm-237.9 0c7.6 7.4 18.8-3.8 11.4-11.4 0 0-17.9-17.9-17.9-17.9-7.6-7.4-18.8 3.8-11.4 11.4 0 0 17.9 17.9 17.9 17.9zm435.3-17.4-70.9 229.5c-1.2 4-5.3 6.3-9.3 5.5l-49.5-9.8-54.7 51.9c-6.2 22.5-1.8 39.5 13.7 52.4 6.2 5.9 13.2 12.6 12.7 23.5-.4 9.2-5.4 14.9-9.1 19-11.4 10.4 1.1 17.7 11.6 24.8 8.4 5.5 17.1 11.2 15.2 20.5-2.1 10.8-13.8 11.2-31.6 11.9-15.2.6-36 1.3-61.9 7.1-18.4 4.3-36.3 9.5-55.4 4.1-10.4-2.7-26.8-8.6-32.9-19.6h-12.4c-15.7 0-28.5-12.8-28.5-28.5v-12.4h-6.7c-25.3.3-38.1-31.8-19.8-48.9-14.2-12.7-10.1-38.9 7.9-46.2-.6-22.5-10.3-43.8-27.8-60.1-86.5-80.4-33-227.1 84.3-234.7 61.8-3.9 118.1 34.5 137.5 92.3 54.8-28.4 121.6-63.3 176.1-91.7 6.2-3.5 13.8 2.9 11.5 9.4zm-365.4 282h98.2c1.2-23.5 10.3-45.5 25.5-62-2.1-2.8-13-17.2-14.9-19.7l-114.5-22.5c54.9-28.5 114.3-59.5 169.2-88.1-42.4-126.8-224.8-103.1-234.1 30.4-1.5 35 12.2 68.8 37.7 92.7 20 18.8 31.6 43.3 32.9 69.2zm-16.7 28.5c0 6.8 5.6 12.4 12.4 12.4h106.6c16.4-.2 16.2-24.4 0-24.7h-106.6c-6.6-.2-12.5 5.7-12.4 12.3zm119 53.3c16.3-.4 16.3-24.3 0-24.7h-106.6c-16.3.5-16.2 24.3.1 24.7-.1 0 106.5 0 106.5 0zm-35.2 40.9c6.8 0 12.4-5.6 12.4-12.4v-12.4h-60.9v12.4c0 6.8 5.5 12.4 12.4 12.4zm97.9-130-31.4-41.5c-11.9 13.9-18.8 32.2-19.4 51.6 17.5 7.3 22.4 33.3 7.9 46.3 18.3 17.1 5.5 49.3-19.8 48.9h-6.7v12.4c0 15.3-12.1 27.7-27.3 28.4 18.9 9.6 39.7 5.2 59.8-.1 34.3-7.4 52.7-6.6 76.3-8-19.7-11.4-38.5-29.7-18.2-51.2 7.4-8.4 7-11.3-2.6-20.2-18.5-15.3-26-39.9-18.6-66.6zm74.4-156.5-2 1.4-112.4 75.4 2.1 2.8 18.2 24.1 24.1 31.9s9.4-47.8 9.4-47.8c15.8-26.2 43.8-62.7 60.6-87.8zm-23.1 103.3c-1.7-.3-22.4-4.4-23.3-4.6l-6.4 32.8zm128-207.8c-34.8 18.1-92 47.9-127.5 66.4-56.8 29.6-117.3 61-174.2 90.7l69.1 13.6 154.7-103.7c2.2-1.3 5-1.7 7.4-.7 4.8 1.6 6.8 7.9 3.8 12-25.8 36.6-51.5 73.3-77.2 109.9l1.5.3 79.4 15.6zm-414.2 218.8-17.9 17.9c-5.1 4.8-1.2 14 5.7 13.8 2.1 0 4.1-.8 5.7-2.4l17.9-17.9c3.2-3.2 3.2-8.3 0-11.4-3.1-3.1-8.2-3.1-11.4 0z"/></svg>